<svg xmlns="http://www.w3.org/2000/svg" viewBox="0 0 645.35 644.74"><defs><style>.cls-1{fill:#29394c;}.cls-2{fill:#44a9f8;}</style></defs><title>SoftUni_Logo</title><g id="Layer_2" data-name="Layer 2"><g id="Layer_1-2" data-name="Layer 1"><path class="cls-1" d="M164.44,562.52a8.86,8.86,0,0,1-2.2,2.51,4.92,4.92,0,0,1-3,.84,7.25,7.25,0,0,1-3.46-1l-4.19-2.27a34.86,34.86,0,0,0-5.34-2.27,21.4,21.4,0,0,0-6.85-1q-6.64,0-9.88,2.83a9.62,9.62,0,0,0-3.25,7.65,7,7,0,0,0,2,5.1,16.82,16.82,0,0,0,5.13,3.49,54.9,54.9,0,0,0,7.26,2.69q4.09,1.22,8.35,2.72a74.82,74.82,0,0,1,8.35,3.53,27.84,27.84,0,0,1,7.26,5.17,24.12,24.12,0,0,1,5.13,7.65,27.21,27.21,0,0,1,2,10.86,35.39,35.39,0,0,1-2.44,13.2,30.91,30.91,0,0,1-7.09,10.72,32.9,32.9,0,0,1-11.46,7.2,42.86,42.86,0,0,1-15.47,2.62,49.62,49.62,0,0,1-9.67-1A57.36,57.36,0,0,1,116,641a55.19,55.19,0,0,1-8.66-4.23,36.73,36.73,0,0,1-7.05-5.45l7-11a7,7,0,0,1,2.2-2,5.75,5.75,0,0,1,3-.8,8,8,0,0,1,4.23,1.33q2.13,1.33,4.82,2.93a39,39,0,0,0,6.18,2.93,23.17,23.17,0,0,0,8.24,1.33q6.43,0,10-2.83t3.56-9a8.49,8.49,0,0,0-2-5.8,15.11,15.11,0,0,0-5.13-3.7,47.36,47.36,0,0,0-7.23-2.58q-4.05-1.12-8.31-2.48a60.69,60.69,0,0,1-8.31-3.35,26.21,26.21,0,0,1-7.23-5.24,24.49,24.49,0,0,1-5.13-8.1,32.17,32.17,0,0,1-2-12,28.43,28.43,0,0,1,2.3-11.18,28.85,28.85,0,0,1,6.78-9.71,33.33,33.33,0,0,1,11-6.81,40.51,40.51,0,0,1,14.88-2.55,55.8,55.8,0,0,1,9.12.73,48,48,0,0,1,8.42,2.17,46.24,46.24,0,0,1,7.44,3.42,34.3,34.3,0,0,1,6.18,4.51Z"/><path class="cls-1" d="M216.48,570.07a41.85,41.85,0,0,1,15,2.59,33,33,0,0,1,11.63,7.4,33.37,33.37,0,0,1,7.54,11.7,42.22,42.22,0,0,1,2.69,15.47,43,43,0,0,1-2.69,15.61,33.6,33.6,0,0,1-7.54,11.81,33.1,33.1,0,0,1-11.63,7.47,41.34,41.34,0,0,1-15,2.62,41.82,41.82,0,0,1-15.12-2.62,33.75,33.75,0,0,1-11.74-7.47A33.08,33.08,0,0,1,182,622.84a43,43,0,0,1-2.69-15.61A42.2,42.2,0,0,1,182,591.76a32.86,32.86,0,0,1,7.61-11.7,33.6,33.6,0,0,1,11.74-7.4A42.34,42.34,0,0,1,216.48,570.07Zm0,58.61q7.47,0,11-5.27t3.53-16q0-10.76-3.53-16t-11-5.24q-7.69,0-11.25,5.24t-3.56,16q0,10.76,3.56,16T216.48,628.67Z"/><path class="cls-1" d="M336.7,586.13v36a6.77,6.77,0,0,0,1.22,4.16,4.13,4.13,0,0,0,3.53,1.64,6.92,6.92,0,0,0,2-.24,8,8,0,0,0,1.4-.56c.39-.21.77-.39,1.12-.56a2.87,2.87,0,0,1,1.22-.24,2.53,2.53,0,0,1,1.57.45,5.64,5.64,0,0,1,1.22,1.43l6.57,10.27a29.9,29.9,0,0,1-9.43,4.72,37.47,37.47,0,0,1-10.83,1.57,25.56,25.56,0,0,1-9.12-1.5,17.59,17.59,0,0,1-10.72-10.93,25.81,25.81,0,0,1-1.4-8.73V586.13H289.27v57.49H267.61V586.06l-4.75-1a9.77,9.77,0,0,1-3.95-1.75,4.18,4.18,0,0,1-1.5-3.49v-8.52h10.2V567.2a30.33,30.33,0,0,1,2-11.25,23.8,23.8,0,0,1,5.73-8.59,25.78,25.78,0,0,1,9.12-5.52,35.63,35.63,0,0,1,12.22-2,35.21,35.21,0,0,1,4.89.31,34.7,34.7,0,0,1,4.68,1l-.42,10.55a3.49,3.49,0,0,1-1.85,3,6.36,6.36,0,0,1-1.71.66,8.05,8.05,0,0,1-1.82.21,21.12,21.12,0,0,0-5.1.56,8.18,8.18,0,0,0-3.74,2,9,9,0,0,0-2.27,3.77,19.19,19.19,0,0,0-.77,5.9v3.42H316.3l4.33-17.81q.84-3.35,4.75-3.35H336.7v21.17h18v14.81Z"/><path class="cls-1" d="M408,625a21.71,21.71,0,0,0,8.49-1.57,17.17,17.17,0,0,0,6.32-4.5,19.92,19.92,0,0,0,3.95-7.16,31.26,31.26,0,0,0,1.36-9.6V541.84h23.61v60.28a47.07,47.07,0,0,1-3,17.18,38.54,38.54,0,0,1-8.7,13.48,39.25,39.25,0,0,1-13.76,8.8,54.65,54.65,0,0,1-36.53,0,39.24,39.24,0,0,1-13.76-8.8,38.12,38.12,0,0,1-8.66-13.48,47.55,47.55,0,0,1-3-17.18V541.84H387.9v60.21a31.26,31.26,0,0,0,1.36,9.6,20.26,20.26,0,0,0,3.95,7.2,17,17,0,0,0,6.32,4.54A21.71,21.71,0,0,0,408,625Z"/><path class="cls-1" d="M485.21,579a52.61,52.61,0,0,1,4.33-3.63,25.35,25.35,0,0,1,4.78-2.83,28.4,28.4,0,0,1,5.52-1.82,29.6,29.6,0,0,1,6.46-.66,25.38,25.38,0,0,1,10.51,2.06,21.83,21.83,0,0,1,7.72,5.73,24.74,24.74,0,0,1,4.75,8.73,36.22,36.22,0,0,1,1.61,11v46H509.24v-46q0-5.31-2.44-8.28t-7.2-3a15.13,15.13,0,0,0-6.67,1.5,26.9,26.9,0,0,0-6,4.09v51.69H465.23V571.18h13.41a5.09,5.09,0,0,1,5.31,3.63Z"/><path class="cls-1" d="M569.24,551.34a11.44,11.44,0,0,1-1,4.85,12.77,12.77,0,0,1-2.86,4,14,14,0,0,1-4.23,2.72,13.11,13.11,0,0,1-5.13,1,12.19,12.19,0,0,1-5-1,13.91,13.91,0,0,1-4.09-2.72,12.57,12.57,0,0,1-2.79-4,11.77,11.77,0,0,1-1-4.85,12.19,12.19,0,0,1,1-5,12.87,12.87,0,0,1,2.79-4.05,13.11,13.11,0,0,1,4.09-2.72,12.57,12.57,0,0,1,5-1,13.53,13.53,0,0,1,5.13,1,13.22,13.22,0,0,1,4.23,2.72,13.08,13.08,0,0,1,2.86,4.05A11.85,11.85,0,0,1,569.24,551.34ZM567,571.18v72.44H545.35V571.18Z"/><path class="cls-2" d="M322.68,0,0,171.61l126,64.27V392l196.67,97.67L519.35,392V235.88l126-64.27Zm136,354.42L322.86,421.87l-.18-.09-.2.09L186.64,354.42V266.79l136,69.36,136-69.35Zm-136-86.3v0l-189-96.38L322.68,68l189,103.7Z"/></g></g></svg>